<svg width="207" height="62" viewBox="0 0 207 62" fill="none" xmlns="http://www.w3.org/2000/svg">
<path d="M78.9223 41L73.6183 33.584V41H68.9143V24.08H73.6183V31.376L78.8743 24.08H84.2983L78.0823 32.288L84.6103 41H78.9223Z" fill="white"/>
<path d="M61.5307 24.08H66.2347V41H61.5307L55.2667 31.544V41H50.5627V24.08H55.2667L61.5307 33.656V24.08Z" fill="white"/>
<path d="M44.0616 41L43.1496 38.24H37.1496L36.2376 41H31.2936L37.4616 24.08H42.8856L49.0296 41H44.0616ZM41.9736 34.64L40.1496 29.168L38.3496 34.64H41.9736Z" fill="white"/>
<path d="M25.56 35.72C25.56 34.688 24.912 34.136 23.76 34.136H21.048V37.208H23.784C24.96 37.208 25.56 36.728 25.56 35.72ZM25.2 29.336C25.2 28.328 24.576 27.824 23.424 27.824H21.048V30.8H23.424C24.576 30.8 25.2 30.32 25.2 29.336ZM30.384 36.392C30.384 39.248 28.344 41 24.72 41H16.344V24.08H24.456C27.888 24.08 30 25.664 30 28.472C30 30.512 28.8 31.856 27.144 32.312C29.16 32.768 30.384 34.472 30.384 36.392Z" fill="white"/>
<path fill-rule="evenodd" clip-rule="evenodd" d="M87 26C87 24.3431 88.3431 23 90 23H123C124.657 23 126 24.3431 126 26V39C126 40.6569 124.657 42 123 42H90C88.3431 42 87 40.6569 87 39V26ZM118.243 41L112.939 33.584V41H108.235V24.08H112.939V31.376L118.195 24.08H123.619L117.403 32.288L123.931 41H118.243ZM97.456 41.168C102.256 41.168 106.12 37.568 106.12 32.48C106.12 27.392 102.28 23.816 97.456 23.816C92.656 23.816 88.768 27.392 88.768 32.48C88.768 37.568 92.656 41.168 97.456 41.168ZM97.456 36.8C95.008 36.8 93.568 35.096 93.568 32.48C93.568 29.816 95.008 28.136 97.456 28.136C99.88 28.136 101.344 29.816 101.344 32.48C101.344 35.096 99.88 36.8 97.456 36.8Z" fill="white"/>
<path d="M159.36 31.544H161.232C162.648 31.544 163.224 30.824 163.224 29.72C163.224 28.592 162.648 27.872 161.232 27.872H159.36V31.544ZM168.024 29.72C168.024 32.672 165.984 35.288 161.688 35.288H159.36V41H154.656V24.08H161.688C165.888 24.08 168.024 26.456 168.024 29.72Z" fill="white"/>
<path d="M147.274 41V24.08H151.978V41H147.274Z" fill="white"/>
<path d="M136.976 36.296L140.792 24.08H145.808L139.976 41H133.952L128.096 24.08H133.136L136.976 36.296Z" fill="white"/>
<path fill-rule="evenodd" clip-rule="evenodd" d="M180.658 27.7962L179.011 24.1355L175.259 19.468C174.801 18.7359 174.508 17.3082 175.167 16.7225C175.991 15.9903 176.906 15.9903 178.096 17.1801L182.58 22.2136L183.496 23.4033L183.953 23.2203L183.496 22.2136C183.404 21.695 183.221 20.4198 183.221 19.468C183.221 19.3617 183.22 19.2525 183.219 19.1414C183.212 18.009 183.203 16.6816 183.953 16.2649C184.612 15.8988 185.265 15.9903 185.509 16.0819C185.722 16.0513 186.223 16.2832 186.516 17.4546C186.808 18.6261 187.248 21.1154 187.431 22.2136C187.492 22 187.815 21.4997 188.621 21.2069C189.426 20.914 190.054 21.5119 190.268 21.8475C190.329 22.2136 190.396 23.0372 190.176 23.4033C189.957 23.7694 189.658 25.3252 189.536 26.0573C189.444 26.759 189.243 28.2355 189.17 28.5283C189.096 28.8212 188.895 30.6027 188.804 31.4569C188.926 31.4874 189.243 31.585 189.536 31.7315C189.902 31.9145 190 32 190.5 33C191 34 191 35 191 36V37.131C191 37.4056 190.942 39.1207 190.817 39.5105C190.5 40.5 189.902 41.7069 189.536 42.256C189.17 42.8051 187.065 44.4525 186.516 44.727C185.967 45.0016 184.228 45.7337 182.489 45.6422C180.75 45.5507 178.187 44.9101 176.723 44.1779C175.259 43.4458 174.344 42.6221 173.703 41.89C173.191 41.3042 172.635 40.4257 172.422 40.0596C172.269 39.602 171.818 38.6319 171.232 38.4123C171.08 37.9547 170.848 36.9114 171.141 36.3989C171.507 35.7582 172.422 35.6667 172.971 35.7582C172.849 35.6057 172.605 35.2641 172.605 35.1176V33.1957C172.635 32.6466 172.806 31.402 173.245 30.8163C173.685 30.2306 174.649 29.474 175.076 29.1689C175.594 28.8029 176.815 27.9792 177.547 27.6131C178.462 27.1555 179.835 27.5216 180.292 27.8877L180.658 27.7962ZM175 36.2098C175.397 35.9963 176.208 35.4777 176.281 35.1116C176.373 34.654 176.464 33.8304 176.281 33.6473C176.312 33.4338 176.409 32.9884 176.556 32.9152L177.288 32.5491C177.369 32.5084 177.523 32.3954 177.677 32.2825C177.869 32.1412 178.061 32 178.112 32C178.137 32 178.202 32.0142 178.295 32.0347C178.537 32.0878 178.971 32.183 179.414 32.183H180.949C181.04 32.183 181.498 32.183 181.498 32.6406C181.803 33.1287 182.431 34.1232 182.504 34.1964C182.596 34.288 183.237 34.9286 183.511 34.9286C183.786 34.9286 183.449 36.4617 183.205 36.9273C183.196 36.9444 183.185 36.9674 183.172 36.9953C183.043 37.2638 182.693 37.9919 181.864 38.4063C181.735 38.4708 181.611 38.5371 181.49 38.6024C180.748 39.0005 180.076 39.3614 178.661 39.0469C177.013 38.6808 176.373 38.0402 175.732 37.2165C175.22 36.5576 175.031 36.2708 175 36.2098Z" fill="white"/>
</svg>
